<svg id="Capa_1" data-name="Capa 1" xmlns="http://www.w3.org/2000/svg" viewBox="0 0 594.09 144.53"><defs><style>.cls-1{fill:#e30613;}.cls-2{fill:#646365;}</style></defs><title>logo_web</title><path class="cls-1" d="M477.51,253.89c-12.65,0-22.34,3.33-28.8,9.89S439,280.16,439,293s3.34,22.59,9.79,29.13S464.91,332,477.51,332s22.33-3.32,28.79-9.87S516,305.76,516,293s-3.27-22.63-9.73-29.19S490.15,253.89,477.51,253.89Zm0,59.1c-6.51,0-15.17-2.1-15.17-20.3C462.34,275,471,273,477.51,273s15.17,2.05,15.17,19.74C492.68,310.89,484,313,477.51,313Z" transform="translate(-115.04 -228.51)"/><path class="cls-1" d="M451.5,254.22l-3.57,0H425.87c-3.17,0-5.95,2.06-7.64,5.18,0,0-7.84,16.68-14.65,31.19-6.81-14.51-14.65-31.19-14.65-31.19-1.69-3.12-4.47-5.17-7.64-5.18H359.23l-.81,0c3.5,1.93,7.47,5,11.41,12.45,0,0,8.71,18.06,16.1,33.84h0l5.41,11.54a13.51,13.51,0,0,0,1.23,1.85c-7.89,16.74-19.54,41.36-19.54,41.37-1.62,3.27-4.41,5.46-7.61,5.59l0,0h22.07c3.16,0,5.95-2.06,7.64-5.18l6.9-14.61h0c4.66-9.94,10.31-21.95,13.61-28.89l.09-.15.83-1.77c.08-.18.17-.37.25-.53h0l4.33-9.24h0c7.39-15.78,13.69-28.68,13.7-28.7C441.52,259,447.45,256.13,451.5,254.22Z" transform="translate(-115.04 -228.51)"/><path class="cls-1" d="M682.39,283.42H670.61c-5.41,0-6.16-2.26-6.16-4.7,0-3.34,4.17-5,12.39-5a69.34,69.34,0,0,1,25.41,4.59l3.42,1.35V259.25l-1.69-.57a83.27,83.27,0,0,0-26.65-4.22c-23.12,0-34.85,8.39-34.85,24.94,0,15.65,8.53,23.92,24.67,23.92h13.16c4.54,0,5.47,1.88,5.47,4.7,0,1.37,0,5.14-9.28,5.16l-42.28-.27c-3.12,0-6.3-.91-6.3-7.69V284.43c.57-18,12.11-28.12,16.15-30,0,0-16.27,0-16.27,0l.1-7.47-23.34-6.72v70.15c0,14.46,7.19,22.1,20.79,22.1l51.15,0c26.94-.24,32.63-13.82,32.63-25.09C709.13,296.42,704.49,283.42,682.39,283.42Z" transform="translate(-115.04 -228.51)"/><path class="cls-1" d="M597.93,325.49s-3.51-5.43-3.8-15.4v-56H570.77v52C565.4,310,560.11,312,555.05,312c-4,0-8-1.14-8-9.56V254.1H523.66V303c0,23.88,13.49,28.89,24.81,28.89a45.55,45.55,0,0,0,24.94-7.6c2.44,3.27,8.91,8.22,19.28,8.22h15.54l0,0C605,332.31,599.55,328.76,597.93,325.49Z" transform="translate(-115.04 -228.51)"/><path class="cls-1" d="M377.37,332.47l0,0c-3.19-.13-8.66-3.68-10.28-6.95,0,0-2.9-4.52-3.64-12.86V280.57c0-12.08-6.06-28.13-34.92-28.13a106.5,106.5,0,0,0-17.79,1.64,47,47,0,0,1,.25,4.84,31.53,31.53,0,0,1-3.87,15.47A107.53,107.53,0,0,1,328.51,272c11.57,0,11.57,6.76,11.57,8.93v2.53a82.88,82.88,0,0,0-12.34-.93c-22.61,0-34.08,8.13-34.08,24.18,0,11.47,5.06,25.15,29.16,25.15A38.66,38.66,0,0,0,343.41,326l1.08.31c3.24,3,9,6.12,17.34,6.12h15.54Zm-34.8-22a28.3,28.3,0,0,1-17,5.68q-11.09,0-11.09-9.7,0-9,13.23-9a75.85,75.85,0,0,1,14.83,1.39Z" transform="translate(-115.04 -228.51)"/><rect class="cls-1" x="86.06" y="54.92" width="15.69" height="14.76"/><path class="cls-1" d="M269.81,228.51H238.54a15.88,15.88,0,0,0-15.56,16c0,.49,0,1,0,1.55v64.17h0v21.47h0v-.06L246.32,313V299.16c22.07-.68,56.33-11.3,56.33-40.24C302.65,239,291.29,228.51,269.81,228.51ZM245.59,277.2v0C237.47,277.24,245.59,277.2,245.59,277.2Zm.17,22s-11.63.21-.34,0h.34Zm.56-21.94v-27.6h22.31c6.8,0,9.83,3,9.83,9.84C278.46,272.34,262.56,277.13,246.32,277.24Z" transform="translate(-115.04 -228.51)"/><path class="cls-1" d="M155.3,246.26c-13.22,0-23.35,3.57-30.11,10.61S115,274.36,115,288.05c0,28.91,15.52,43.58,46.12,43.61h5.74l26-21.48H161.41c-15.77-.31-19.7-6-20.52-11.39h0a.12.12,0,0,0,0,.05h52.41v-.05h.07l.33-2.37a75.32,75.32,0,0,0,.71-10.27c0-13.06-3.33-23.08-9.88-29.77S168.14,246.26,155.3,246.26Zm-14.16,33c1.44-8,6-11.71,14.16-11.71,8.94,0,13.3,3.63,13.93,11.71Z" transform="translate(-115.04 -228.51)"/><path class="cls-1" d="M156.14,331.66h0Z" transform="translate(-115.04 -228.51)"/><path class="cls-2" d="M221.83,352.12c0-2.36-.08-4.26-.16-6h3l.19,3.16h.08a7.16,7.16,0,0,1,6.55-3.54c4.49,0,7.84,3.77,7.84,9.32,0,6.63-4.07,9.9-8.41,9.9a6.44,6.44,0,0,1-5.67-2.89h-.08v10h-3.31Zm3.31,4.91a5.33,5.33,0,0,0,.15,1.37,5.17,5.17,0,0,0,5,3.93c3.53,0,5.59-2.9,5.59-7.12,0-3.66-1.94-6.82-5.48-6.82a5.77,5.77,0,0,0-5.29,5.45Z" transform="translate(-115.04 -228.51)"/><path class="cls-2" d="M256.45,360.12a30.88,30.88,0,0,0,.26,4.41h-3l-.27-2.32h-.12a6.83,6.83,0,0,1-5.63,2.74,5.25,5.25,0,0,1-5.64-5.29c0-4.45,4-6.89,11.08-6.85v-.38c0-1.49-.41-4.27-4.18-4.23a8.94,8.94,0,0,0-4.84,1.37l-.76-2.24a11.94,11.94,0,0,1,6.09-1.6c5.64,0,7,3.84,7,7.5Zm-3.24-5c-3.66-.08-7.8.57-7.8,4.15a2.93,2.93,0,0,0,3.12,3.2,4.66,4.66,0,0,0,4.53-3.08,4,4,0,0,0,.15-1.07Z" transform="translate(-115.04 -228.51)"/><path class="cls-2" d="M262.78,346.11l4,10.89c.46,1.22.92,2.66,1.22,3.77h.08c.34-1.11.72-2.52,1.18-3.85l3.65-10.81h3.54l-5,13.13c-2.4,6.32-4,9.52-6.32,11.54a9.48,9.48,0,0,1-4.12,2.13l-.83-2.78a9,9,0,0,0,2.93-1.64,10.54,10.54,0,0,0,2.82-3.73,2.4,2.4,0,0,0,.26-.8,2.27,2.27,0,0,0-.26-.87l-6.78-17Z" transform="translate(-115.04 -228.51)"/><path class="cls-2" d="M279.5,351.09c0-1.94-.08-3.46-.15-5h2.93l.15,3h.11a6.37,6.37,0,0,1,5.83-3.39,5.44,5.44,0,0,1,5.18,3.69h.07a7.24,7.24,0,0,1,2.1-2.4,6.14,6.14,0,0,1,4-1.29c2.48,0,6.09,1.6,6.09,8v10.81h-3.27V354.14c0-3.58-1.33-5.67-4-5.67a4.38,4.38,0,0,0-4,3,5.41,5.41,0,0,0-.27,1.67v11.38H291v-11c0-2.93-1.3-5-3.85-5a4.6,4.6,0,0,0-4.15,3.35,4.48,4.48,0,0,0-.27,1.64v11.07H279.5Z" transform="translate(-115.04 -228.51)"/><path class="cls-2" d="M313.13,355.93c.08,4.53,2.94,6.4,6.32,6.4a11.9,11.9,0,0,0,5.11-1l.6,2.4A14.86,14.86,0,0,1,319,365c-5.68,0-9.06-3.77-9.06-9.33s3.27-9.89,8.64-9.89c6.05,0,7.61,5.25,7.61,8.64a8.8,8.8,0,0,1-.11,1.56Zm9.83-2.4c0-2.09-.88-5.4-4.65-5.4-3.43,0-4.87,3.08-5.14,5.4Z" transform="translate(-115.04 -228.51)"/><path class="cls-2" d="M330.35,351.09c0-1.94,0-3.46-.15-5h3l.19,3h.07a6.84,6.84,0,0,1,6.1-3.42c2.55,0,6.51,1.52,6.51,7.84v11h-3.35V353.91c0-3-1.11-5.44-4.27-5.44a4.83,4.83,0,0,0-4.49,3.42,4.9,4.9,0,0,0-.23,1.57v11.07h-3.35Z" transform="translate(-115.04 -228.51)"/><path class="cls-2" d="M355.38,341.69v4.42h4.8v2.55h-4.8v9.93c0,2.29.64,3.58,2.51,3.58a6.31,6.31,0,0,0,1.94-.22l.15,2.55a9.06,9.06,0,0,1-3,.45,4.76,4.76,0,0,1-3.61-1.41c-.91-1-1.3-2.66-1.3-4.83v-10h-2.85v-2.55h2.85v-3.43Z" transform="translate(-115.04 -228.51)"/><path class="cls-2" d="M423.71,342.23v4.42h4.8v2.55h-4.8v9.94c0,2.28.65,3.58,2.51,3.58a6.26,6.26,0,0,0,1.94-.23l.15,2.55a9,9,0,0,1-3,.46,4.8,4.8,0,0,1-3.61-1.41c-.91-1-1.29-2.67-1.29-4.84V349.2h-2.86v-2.55h2.86v-3.42Z" transform="translate(-115.04 -228.51)"/><path class="cls-2" d="M433.92,356.47c.07,4.53,2.93,6.4,6.32,6.4a12,12,0,0,0,5.1-.95l.61,2.4a15.08,15.08,0,0,1-6.17,1.18c-5.67,0-9.06-3.77-9.06-9.33s3.27-9.9,8.64-9.9c6.05,0,7.62,5.26,7.62,8.64a7.74,7.74,0,0,1-.12,1.56Zm9.82-2.39c0-2.1-.88-5.41-4.64-5.41-3.43,0-4.88,3.08-5.14,5.41Z" transform="translate(-115.04 -228.51)"/><path class="cls-2" d="M464.28,364.43a13,13,0,0,1-5.3,1.07c-5.56,0-9.17-3.77-9.17-9.41s3.88-9.82,9.9-9.82a10.47,10.47,0,0,1,4.64,1l-.76,2.55a8.21,8.21,0,0,0-3.88-.87c-4.23,0-6.51,3.16-6.51,7,0,4.27,2.74,6.89,6.39,6.89a9.55,9.55,0,0,0,4.11-.87Z" transform="translate(-115.04 -228.51)"/><path class="cls-2" d="M468.21,338.05h3.34v11.53h.08a6.43,6.43,0,0,1,2.4-2.4,6.88,6.88,0,0,1,3.43-.91c2.47,0,6.43,1.52,6.43,7.84v11h-3.35V354.5c0-3-1.1-5.45-4.26-5.45a4.88,4.88,0,0,0-4.5,3.31,4.52,4.52,0,0,0-.23,1.6v11.12h-3.34Z" transform="translate(-115.04 -228.51)"/><path class="cls-2" d="M489.35,351.64c0-1.94,0-3.47-.16-5h3l.19,3.05h.08a6.8,6.8,0,0,1,6.09-3.43c2.55,0,6.51,1.52,6.51,7.84v11h-3.35V354.46c0-3-1.11-5.45-4.26-5.45a4.92,4.92,0,0,0-4.73,5v11.08h-3.34Z" transform="translate(-115.04 -228.51)"/><path class="cls-2" d="M527.16,355.71c0,6.82-4.75,9.79-9.17,9.79-5,0-8.84-3.66-8.84-9.48,0-6.13,4.08-9.75,9.14-9.75C523.58,346.27,527.16,350.12,527.16,355.71Zm-14.58.19c0,4,2.29,7.08,5.56,7.08s5.6-3,5.6-7.15c0-3.13-1.56-7.05-5.52-7.05S512.58,352.44,512.58,355.9Z" transform="translate(-115.04 -228.51)"/><path class="cls-2" d="M531.4,338.05h3.35v27H531.4Z" transform="translate(-115.04 -228.51)"/><path class="cls-2" d="M557.07,355.71c0,6.82-4.76,9.79-9.18,9.79-4.95,0-8.83-3.66-8.83-9.48,0-6.13,4.07-9.75,9.13-9.75C553.49,346.27,557.07,350.12,557.07,355.71Zm-14.59.19c0,4,2.29,7.08,5.56,7.08s5.6-3,5.6-7.15c0-3.13-1.56-7.05-5.52-7.05S542.48,352.44,542.48,355.9Z" transform="translate(-115.04 -228.51)"/><path class="cls-2" d="M577.07,362.38c0,4.26-.88,6.81-2.63,8.45A10.18,10.18,0,0,1,567.7,373a11.88,11.88,0,0,1-6.13-1.53l.84-2.59a10,10,0,0,0,5.4,1.49c3.43,0,5.94-1.79,5.94-6.47v-2h-.07a6.54,6.54,0,0,1-5.87,3.08c-4.57,0-7.84-3.88-7.84-9,0-6.25,4.07-9.75,8.34-9.75a6.16,6.16,0,0,1,5.75,3.16h.07l.12-2.78h3c-.12,1.3-.15,2.82-.15,5Zm-3.36-8.46a4.19,4.19,0,0,0-.19-1.48,4.78,4.78,0,0,0-4.68-3.58c-3.19,0-5.48,2.7-5.48,7,0,3.61,1.86,6.62,5.44,6.62a4.83,4.83,0,0,0,4.65-3.42,5.88,5.88,0,0,0,.26-1.79Z" transform="translate(-115.04 -228.51)"/><path class="cls-2" d="M586.1,341.47a2,2,0,0,1-2.13,2.06,2,2,0,0,1-2-2.06,2,2,0,0,1,2.09-2.09A2,2,0,0,1,586.1,341.47Zm-3.73,23.61V346.65h3.35v18.43Z" transform="translate(-115.04 -228.51)"/><path class="cls-2" d="M593.15,356.47c.07,4.53,2.93,6.4,6.32,6.4a12,12,0,0,0,5.1-.95l.61,2.4A15.08,15.08,0,0,1,599,365.5c-5.67,0-9.06-3.77-9.06-9.33s3.27-9.9,8.64-9.9c6,0,7.62,5.26,7.62,8.64a7.74,7.74,0,0,1-.12,1.56Zm9.82-2.39c0-2.1-.88-5.41-4.64-5.41-3.43,0-4.87,3.08-5.14,5.41Z" transform="translate(-115.04 -228.51)"/><path class="cls-2" d="M609.91,361.69a9.46,9.46,0,0,0,4.45,1.29c2.4,0,3.54-1.18,3.54-2.74s-.95-2.43-3.38-3.35c-3.36-1.22-4.91-3-4.91-5.21,0-3,2.43-5.41,6.35-5.41a8.54,8.54,0,0,1,4.5,1.14l-.8,2.44a7.15,7.15,0,0,0-3.77-1.1c-2,0-3,1.14-3,2.51s1.07,2.21,3.46,3.16c3.17,1.18,4.84,2.78,4.84,5.52,0,3.27-2.55,5.56-6.85,5.56a10.54,10.54,0,0,1-5.18-1.3Z" transform="translate(-115.04 -228.51)"/></svg>